# MagicaVoxel @ Ephtracy

# group
g BPW2_obstacle_Billboard

# material
mtllib BPW2_obstacle_Billboard.mtl
usemtl palette

# normals
vn -1 0 0
vn 1 0 0
vn 0 0 1
vn 0 0 -1
vn 0 -1 0
vn 0 1 0

# texcoords
vt 0.306641 0.5
vt 0.888672 0.5
vt 0.896484 0.5
vt 0.900391 0.5
vt 0.923828 0.5
vt 0.927734 0.5
vt 0.958984 0.5
vt 0.978516 0.5
vt 0.994141 0.5

# verts
v -6 0 20
v -6 0 16
v -6 0 -16
v -6 0 -20
v -6 1 20
v -6 1 16
v -6 1 -16
v -6 1 -20
v -5 0 16
v -5 0 15
v -5 0 -15
v -5 0 -16
v -5 1 20
v -5 1 17
v -5 1 16
v -5 1 15
v -5 1 -15
v -5 1 -16
v -5 1 -17
v -5 1 -20
v -5 2 20
v -5 2 17
v -5 2 -17
v -5 2 -20
v -4 0 15
v -4 0 13
v -4 0 -13
v -4 0 -15
v -4 1 17
v -4 1 16
v -4 1 15
v -4 1 13
v -4 1 -13
v -4 1 -15
v -4 1 -16
v -4 1 -17
v -4 2 20
v -4 2 17
v -4 2 -17
v -4 2 -20
v -4 19 16
v -4 19 -16
v -4 40 20
v -4 40 -20
v -3 1 16
v -3 1 14
v -3 1 -14
v -3 1 -16
v -3 2 16
v -3 2 14
v -3 2 -14
v -3 2 -16
v 2 1 16
v 2 1 14
v 2 1 -14
v 2 1 -16
v 2 2 16
v 2 2 14
v 2 2 -14
v 2 2 -16
v 3 0 15
v 3 0 13
v 3 0 -13
v 3 0 -15
v 3 1 17
v 3 1 16
v 3 1 15
v 3 1 13
v 3 1 -13
v 3 1 -15
v 3 1 -16
v 3 1 -17
v 3 2 20
v 3 2 17
v 3 2 -17
v 3 2 -20
v 3 19 16
v 3 19 -16
v 3 21 18
v 3 21 -18
v 3 22 7
v 3 22 3
v 3 22 -9
v 3 22 -13
v 3 22 -14
v 3 23 8
v 3 23 7
v 3 23 5
v 3 23 3
v 3 23 2
v 3 23 -8
v 3 23 -9
v 3 23 -13
v 3 23 -14
v 3 24 14
v 3 24 10
v 3 24 -2
v 3 24 -6
v 3 25 15
v 3 25 14
v 3 25 10
v 3 25 9
v 3 25 -1
v 3 25 -2
v 3 25 -5
v 3 25 -6
v 3 25 -7
v 3 26 14
v 3 26 13
v 3 26 10
v 3 26 -2
v 3 26 -3
v 3 26 -4
v 3 26 -5
v 3 26 -6
v 3 26 -7
v 3 26 -8
v 3 26 -9
v 3 26 -10
v 3 26 -11
v 3 26 -12
v 3 26 -13
v 3 26 -14
v 3 26 -15
v 3 27 -7
v 3 27 -8
v 3 27 -11
v 3 27 -12
v 3 27 -14
v 3 27 -15
v 3 28 -14
v 3 28 -15
v 3 29 -11
v 3 29 -12
v 3 30 -3
v 3 30 -4
v 3 30 -5
v 3 30 -7
v 3 30 -8
v 3 31 6
v 3 31 5
v 3 31 4
v 3 31 -2
v 3 31 -4
v 3 31 -6
v 3 31 -7
v 3 31 -8
v 3 31 -9
v 3 31 -10
v 3 31 -11
v 3 31 -12
v 3 31 -13
v 3 31 -14
v 3 31 -15
v 3 32 7
v 3 32 6
v 3 32 5
v 3 32 4
v 3 32 3
v 3 32 -2
v 3 32 -5
v 3 32 -6
v 3 32 -7
v 3 32 -8
v 3 32 -9
v 3 32 -10
v 3 32 -11
v 3 32 -12
v 3 32 -13
v 3 33 13
v 3 33 11
v 3 33 8
v 3 33 7
v 3 33 6
v 3 33 5
v 3 33 4
v 3 33 3
v 3 33 2
v 3 33 -3
v 3 33 -4
v 3 33 -7
v 3 33 -8
v 3 33 -10
v 3 33 -11
v 3 33 -13
v 3 33 -14
v 3 34 14
v 3 34 13
v 3 34 12
v 3 34 11
v 3 34 10
v 3 34 7
v 3 34 5
v 3 34 3
v 3 34 2
v 3 34 -3
v 3 34 -4
v 3 34 -5
v 3 34 -6
v 3 34 -9
v 3 34 -11
v 3 34 -12
v 3 34 -13
v 3 35 17
v 3 35 15
v 3 35 14
v 3 35 13
v 3 35 12
v 3 35 11
v 3 35 10
v 3 35 9
v 3 35 6
v 3 35 5
v 3 35 -1
v 3 35 -2
v 3 35 -3
v 3 35 -4
v 3 35 -5
v 3 35 -9
v 3 35 -10
v 3 35 -11
v 3 35 -12
v 3 35 -13
v 3 36 17
v 3 36 14
v 3 36 10
v 3 36 6
v 3 36 5
v 3 36 2
v 3 36 -3
v 3 36 -4
v 3 36 -5
v 3 36 -6
v 3 36 -9
v 3 36 -10
v 3 36 -15
v 3 36 -17
v 3 37 5
v 3 37 2
v 3 37 -3
v 3 37 -4
v 3 37 -5
v 3 37 -6
v 3 37 -7
v 3 37 -8
v 3 37 -9
v 3 37 -10
v 3 37 -11
v 3 37 -12
v 3 37 -13
v 3 37 -15
v 3 37 -17
v 3 38 18
v 3 38 -2
v 3 38 -4
v 3 38 -18
v 3 40 20
v 3 40 -20
v 4 0 16
v 4 0 15
v 4 0 -15
v 4 0 -16
v 4 1 20
v 4 1 17
v 4 1 16
v 4 1 15
v 4 1 -15
v 4 1 -16
v 4 1 -17
v 4 1 -20
v 4 2 20
v 4 2 17
v 4 2 -17
v 4 2 -20
v 5 0 20
v 5 0 16
v 5 0 -16
v 5 0 -20
v 5 1 20
v 5 1 16
v 5 1 -16
v 5 1 -20
v -6 0 20
v -6 1 20
v -5 1 20
v -5 2 20
v -4 2 20
v -4 40 20
v 3 2 20
v 3 40 20
v 4 1 20
v 4 2 20
v 5 0 20
v 5 1 20
v -4 0 -13
v -4 1 -13
v 3 0 -13
v 3 1 -13
v -3 1 -14
v -3 2 -14
v 2 1 -14
v 2 2 -14
v -5 0 -15
v -5 1 -15
v -4 0 -15
v -4 1 -15
v 3 0 -15
v 3 1 -15
v 4 0 -15
v 4 1 -15
v -6 0 -16
v -6 1 -16
v -5 0 -16
v -5 1 -16
v -4 1 -16
v -4 19 -16
v -3 1 -16
v -3 2 -16
v 2 1 -16
v 2 2 -16
v 3 1 -16
v 3 19 -16
v 4 0 -16
v 4 1 -16
v 5 0 -16
v 5 1 -16
v -5 1 -17
v -5 2 -17
v -4 1 -17
v -4 2 -17
v 3 1 -17
v 3 2 -17
v 4 1 -17
v 4 2 -17
v -5 1 17
v -5 2 17
v -4 1 17
v -4 2 17
v 3 1 17
v 3 2 17
v 4 1 17
v 4 2 17
v -6 0 16
v -6 1 16
v -5 0 16
v -5 1 16
v -4 1 16
v -4 19 16
v -3 1 16
v -3 2 16
v 2 1 16
v 2 2 16
v 3 1 16
v 3 19 16
v 4 0 16
v 4 1 16
v 5 0 16
v 5 1 16
v -5 0 15
v -5 1 15
v -4 0 15
v -4 1 15
v 3 0 15
v 3 1 15
v 4 0 15
v 4 1 15
v -3 1 14
v -3 2 14
v 2 1 14
v 2 2 14
v -4 0 13
v -4 1 13
v 3 0 13
v 3 1 13
v -6 0 -20
v -6 1 -20
v -5 1 -20
v -5 2 -20
v -4 2 -20
v -4 40 -20
v 3 2 -20
v 3 40 -20
v 4 1 -20
v 4 2 -20
v 5 0 -20
v 5 1 -20
v -6 0 20
v 5 0 20
v -6 0 16
v -5 0 16
v 4 0 16
v 5 0 16
v -5 0 15
v -4 0 15
v 3 0 15
v 4 0 15
v -4 0 13
v 3 0 13
v -4 0 -13
v 3 0 -13
v -5 0 -15
v -4 0 -15
v 3 0 -15
v 4 0 -15
v -6 0 -16
v -5 0 -16
v 4 0 -16
v 5 0 -16
v -6 0 -20
v 5 0 -20
v -4 19 16
v 3 19 16
v -4 19 -16
v 3 19 -16
v -6 1 20
v -5 1 20
v 4 1 20
v 5 1 20
v -5 1 17
v -4 1 17
v 3 1 17
v 4 1 17
v -6 1 16
v -5 1 16
v -4 1 16
v -3 1 16
v 2 1 16
v 3 1 16
v 4 1 16
v 5 1 16
v -5 1 15
v -4 1 15
v 3 1 15
v 4 1 15
v -3 1 14
v 2 1 14
v -4 1 13
v 3 1 13
v -4 1 -13
v 3 1 -13
v -3 1 -14
v 2 1 -14
v -5 1 -15
v -4 1 -15
v 3 1 -15
v 4 1 -15
v -6 1 -16
v -5 1 -16
v -4 1 -16
v -3 1 -16
v 2 1 -16
v 3 1 -16
v 4 1 -16
v 5 1 -16
v -5 1 -17
v -4 1 -17
v 3 1 -17
v 4 1 -17
v -6 1 -20
v -5 1 -20
v 4 1 -20
v 5 1 -20
v -5 2 20
v -4 2 20
v 3 2 20
v 4 2 20
v -5 2 17
v -4 2 17
v 3 2 17
v 4 2 17
v -3 2 16
v 2 2 16
v -3 2 14
v 2 2 14
v -3 2 -14
v 2 2 -14
v -3 2 -16
v 2 2 -16
v -5 2 -17
v -4 2 -17
v 3 2 -17
v 4 2 -17
v -5 2 -20
v -4 2 -20
v 3 2 -20
v 4 2 -20
v -4 40 20
v 3 40 20
v -4 40 -20
v 3 40 -20

# faces
f 5/8/1 2/8/1 1/8/1
f 6/8/1 2/8/1 5/8/1
f 7/8/1 4/8/1 3/8/1
f 8/8/1 4/8/1 7/8/1
f 15/8/1 10/8/1 9/8/1
f 16/8/1 10/8/1 15/8/1
f 17/8/1 12/8/1 11/8/1
f 18/8/1 12/8/1 17/8/1
f 21/8/1 14/8/1 13/8/1
f 22/8/1 14/8/1 21/8/1
f 23/8/1 20/8/1 19/8/1
f 24/8/1 20/8/1 23/8/1
f 31/8/1 26/8/1 25/8/1
f 32/8/1 26/8/1 31/8/1
f 33/8/1 28/8/1 27/8/1
f 34/8/1 28/8/1 33/8/1
f 38/8/1 30/8/1 29/8/1
f 39/8/1 36/8/1 35/8/1
f 41/8/1 38/8/1 37/8/1
f 41/8/1 30/8/1 38/8/1
f 42/8/1 40/8/1 39/8/1
f 42/8/1 39/8/1 35/8/1
f 43/8/1 41/8/1 37/8/1
f 43/8/1 42/8/1 41/8/1
f 44/8/1 40/8/1 42/8/1
f 44/8/1 42/8/1 43/8/1
f 49/8/1 46/8/1 45/8/1
f 50/8/1 46/8/1 49/8/1
f 51/8/1 48/8/1 47/8/1
f 52/8/1 48/8/1 51/8/1
f 53/8/2 54/8/2 57/8/2
f 57/8/2 54/8/2 58/8/2
f 55/8/2 56/8/2 59/8/2
f 59/8/2 56/8/2 60/8/2
f 61/8/2 62/8/2 67/8/2
f 67/8/2 62/8/2 68/8/2
f 63/8/2 64/8/2 69/8/2
f 69/8/2 64/8/2 70/8/2
f 65/8/2 66/8/2 74/8/2
f 71/8/2 72/8/2 75/8/2
f 73/8/2 74/8/2 77/8/2
f 74/8/2 66/8/2 77/8/2
f 75/8/2 76/8/2 78/8/2
f 71/8/2 75/8/2 78/8/2
f 73/8/2 77/8/2 79/8/2
f 77/8/2 78/8/2 79/8/2
f 78/8/2 76/8/2 80/8/2
f 79/8/2 78/8/2 80/8/2
f 79/6/2 80/6/2 81/6/2
f 81/6/2 80/6/2 82/6/2
f 82/6/2 80/6/2 83/6/2
f 83/6/2 80/6/2 84/6/2
f 84/6/2 80/6/2 85/6/2
f 79/6/2 81/6/2 86/6/2
f 81/2/2 82/2/2 87/2/2
f 86/6/2 81/6/2 87/6/2
f 87/2/2 82/2/2 88/2/2
f 82/6/2 83/6/2 89/6/2
f 88/2/2 82/2/2 89/2/2
f 89/6/2 83/6/2 90/6/2
f 90/6/2 83/6/2 91/6/2
f 83/2/2 84/2/2 92/2/2
f 91/6/2 83/6/2 92/6/2
f 84/7/2 85/7/2 93/7/2
f 92/2/2 84/2/2 93/2/2
f 85/6/2 80/6/2 94/6/2
f 93/7/2 85/7/2 94/7/2
f 79/6/2 86/6/2 95/6/2
f 95/6/2 86/6/2 96/6/2
f 90/6/2 91/6/2 97/6/2
f 97/6/2 91/6/2 98/6/2
f 79/6/2 95/6/2 99/6/2
f 95/2/2 96/2/2 100/2/2
f 99/6/2 95/6/2 100/6/2
f 96/6/2 86/6/2 101/6/2
f 100/2/2 96/2/2 101/2/2
f 101/6/2 86/6/2 102/6/2
f 90/6/2 97/6/2 103/6/2
f 97/2/2 98/2/2 104/2/2
f 103/6/2 97/6/2 104/6/2
f 104/2/2 98/2/2 105/2/2
f 98/6/2 91/6/2 106/6/2
f 105/2/2 98/2/2 106/2/2
f 106/6/2 91/6/2 107/6/2
f 99/2/2 100/2/2 108/2/2
f 100/2/2 101/2/2 108/2/2
f 101/2/2 102/2/2 108/2/2
f 108/2/2 102/2/2 109/2/2
f 109/2/2 102/2/2 110/2/2
f 104/3/2 105/3/2 111/3/2
f 103/2/2 104/2/2 111/2/2
f 111/3/2 105/3/2 112/3/2
f 112/3/2 105/3/2 113/3/2
f 105/4/2 106/4/2 114/4/2
f 113/3/2 105/3/2 114/3/2
f 106/2/2 107/2/2 115/2/2
f 114/4/2 106/4/2 115/4/2
f 107/6/2 91/6/2 116/6/2
f 115/2/2 107/2/2 116/2/2
f 91/2/2 92/2/2 117/2/2
f 116/6/2 91/6/2 117/6/2
f 92/3/2 93/3/2 118/3/2
f 117/2/2 92/2/2 118/2/2
f 118/3/2 93/3/2 119/3/2
f 119/3/2 93/3/2 120/3/2
f 120/3/2 93/3/2 121/3/2
f 93/2/2 94/2/2 122/2/2
f 121/3/2 93/3/2 122/3/2
f 94/6/2 80/6/2 123/6/2
f 122/2/2 94/2/2 123/2/2
f 123/6/2 80/6/2 124/6/2
f 116/9/2 117/9/2 125/9/2
f 115/9/2 116/9/2 125/9/2
f 117/9/2 118/9/2 125/9/2
f 125/9/2 118/9/2 126/9/2
f 120/3/2 121/3/2 127/3/2
f 119/9/2 120/9/2 127/9/2
f 121/9/2 122/9/2 128/9/2
f 127/3/2 121/3/2 128/3/2
f 123/9/2 124/9/2 129/9/2
f 122/2/2 123/2/2 129/2/2
f 124/6/2 80/6/2 130/6/2
f 129/9/2 124/9/2 130/9/2
f 122/2/2 129/2/2 131/2/2
f 129/6/2 130/6/2 131/6/2
f 130/6/2 80/6/2 132/6/2
f 131/6/2 130/6/2 132/6/2
f 119/9/2 127/9/2 133/9/2
f 127/9/2 128/9/2 133/9/2
f 128/9/2 122/9/2 134/9/2
f 133/9/2 128/9/2 134/9/2
f 112/3/2 113/3/2 135/3/2
f 111/9/2 112/9/2 135/9/2
f 113/9/2 114/9/2 136/9/2
f 135/3/2 113/3/2 136/3/2
f 114/4/2 115/4/2 137/4/2
f 136/9/2 114/9/2 137/9/2
f 125/6/2 126/6/2 138/6/2
f 115/9/2 125/9/2 138/9/2
f 126/9/2 118/9/2 139/9/2
f 138/6/2 126/6/2 139/6/2
f 87/3/2 88/3/2 140/3/2
f 88/4/2 89/4/2 141/4/2
f 140/3/2 88/3/2 141/3/2
f 141/4/2 89/4/2 142/4/2
f 135/9/2 136/9/2 143/9/2
f 111/9/2 135/9/2 143/9/2
f 103/2/2 111/2/2 143/2/2
f 136/3/2 137/3/2 144/3/2
f 143/9/2 136/9/2 144/9/2
f 115/9/2 138/9/2 145/9/2
f 137/4/2 115/4/2 145/4/2
f 138/9/2 139/9/2 145/9/2
f 145/9/2 139/9/2 146/9/2
f 139/9/2 118/9/2 147/9/2
f 146/9/2 139/9/2 147/9/2
f 118/3/2 119/3/2 148/3/2
f 147/9/2 118/9/2 148/9/2
f 119/9/2 133/9/2 149/9/2
f 148/3/2 119/3/2 149/3/2
f 133/3/2 134/3/2 150/3/2
f 149/9/2 133/9/2 150/9/2
f 134/9/2 122/9/2 151/9/2
f 150/3/2 134/3/2 151/3/2
f 122/2/2 131/2/2 152/2/2
f 151/9/2 122/9/2 152/9/2
f 131/9/2 132/9/2 153/9/2
f 152/2/2 131/2/2 153/2/2
f 132/6/2 80/6/2 154/6/2
f 153/9/2 132/9/2 154/9/2
f 86/2/2 87/2/2 155/2/2
f 87/3/2 140/3/2 155/3/2
f 141/2/2 142/2/2 156/2/2
f 155/3/2 140/3/2 156/3/2
f 140/2/2 141/2/2 156/2/2
f 156/2/2 142/2/2 157/2/2
f 142/4/2 89/4/2 158/4/2
f 157/2/2 142/2/2 158/2/2
f 89/2/2 90/2/2 159/2/2
f 158/4/2 89/4/2 159/4/2
f 143/3/2 144/3/2 160/3/2
f 103/2/2 143/2/2 160/2/2
f 144/3/2 137/3/2 161/3/2
f 160/3/2 144/3/2 161/3/2
f 137/4/2 145/4/2 161/4/2
f 145/2/2 146/2/2 162/2/2
f 161/4/2 145/4/2 162/4/2
f 146/6/2 147/6/2 163/6/2
f 162/2/2 146/2/2 163/2/2
f 147/2/2 148/2/2 164/2/2
f 163/6/2 147/6/2 164/6/2
f 148/3/2 149/3/2 165/3/2
f 164/2/2 148/2/2 165/2/2
f 150/2/2 151/2/2 166/2/2
f 165/3/2 149/3/2 166/3/2
f 149/2/2 150/2/2 166/2/2
f 166/2/2 151/2/2 167/2/2
f 151/3/2 152/3/2 168/3/2
f 167/2/2 151/2/2 168/2/2
f 152/2/2 153/2/2 169/2/2
f 168/3/2 152/3/2 169/3/2
f 109/4/2 110/4/2 170/4/2
f 108/3/2 109/3/2 170/3/2
f 170/4/2 110/4/2 171/4/2
f 102/6/2 86/6/2 172/6/2
f 86/2/2 155/2/2 172/2/2
f 155/2/2 156/2/2 172/2/2
f 172/2/2 156/2/2 173/2/2
f 156/3/2 157/3/2 174/3/2
f 173/2/2 156/2/2 174/2/2
f 157/4/2 158/4/2 175/4/2
f 174/3/2 157/3/2 175/3/2
f 158/2/2 159/2/2 176/2/2
f 175/4/2 158/4/2 176/4/2
f 159/2/2 90/2/2 177/2/2
f 176/2/2 159/2/2 177/2/2
f 90/6/2 103/6/2 178/6/2
f 177/2/2 90/2/2 178/2/2
f 160/9/2 161/9/2 179/9/2
f 179/9/2 161/9/2 180/9/2
f 164/9/2 165/9/2 181/9/2
f 162/9/2 163/9/2 181/9/2
f 163/9/2 164/9/2 181/9/2
f 181/9/2 165/9/2 182/9/2
f 166/3/2 167/3/2 183/3/2
f 165/2/2 166/2/2 183/2/2
f 167/9/2 168/9/2 184/9/2
f 183/3/2 167/3/2 184/3/2
f 169/2/2 153/2/2 185/2/2
f 168/2/2 169/2/2 185/2/2
f 153/6/2 154/6/2 186/6/2
f 185/2/2 153/2/2 186/2/2
f 99/2/2 108/2/2 187/2/2
f 108/3/2 170/3/2 187/3/2
f 170/2/2 171/2/2 188/2/2
f 187/3/2 170/3/2 188/3/2
f 188/2/2 171/2/2 189/2/2
f 171/4/2 110/4/2 190/4/2
f 189/2/2 171/2/2 190/2/2
f 110/2/2 102/2/2 191/2/2
f 190/4/2 110/4/2 191/4/2
f 172/6/2 173/6/2 192/6/2
f 173/2/2 174/2/2 192/2/2
f 176/2/2 177/2/2 192/2/2
f 174/2/2 175/2/2 192/2/2
f 175/2/2 176/2/2 192/2/2
f 192/2/2 177/2/2 193/2/2
f 177/6/2 178/6/2 194/6/2
f 193/2/2 177/2/2 194/2/2
f 178/6/2 103/6/2 195/6/2
f 194/6/2 178/6/2 195/6/2
f 179/2/2 180/2/2 196/2/2
f 160/9/2 179/9/2 196/9/2
f 180/9/2 161/9/2 197/9/2
f 196/2/2 180/2/2 197/2/2
f 161/4/2 162/4/2 198/4/2
f 197/9/2 161/9/2 198/9/2
f 162/9/2 181/9/2 199/9/2
f 198/4/2 162/4/2 199/4/2
f 165/2/2 183/2/2 200/2/2
f 183/2/2 184/2/2 200/2/2
f 182/9/2 165/9/2 200/9/2
f 184/9/2 168/9/2 201/9/2
f 200/2/2 184/2/2 201/2/2
f 168/2/2 185/2/2 202/2/2
f 201/9/2 168/9/2 202/9/2
f 185/6/2 186/6/2 203/6/2
f 202/2/2 185/2/2 203/2/2
f 79/6/2 99/6/2 204/6/2
f 187/2/2 188/2/2 205/2/2
f 204/6/2 99/6/2 205/6/2
f 99/2/2 187/2/2 205/2/2
f 205/2/2 188/2/2 206/2/2
f 188/3/2 189/3/2 207/3/2
f 206/2/2 188/2/2 207/2/2
f 189/4/2 190/4/2 208/4/2
f 207/3/2 189/3/2 208/3/2
f 190/2/2 191/2/2 209/2/2
f 208/4/2 190/4/2 209/4/2
f 191/2/2 102/2/2 210/2/2
f 209/2/2 191/2/2 210/2/2
f 172/6/2 192/6/2 211/6/2
f 210/2/2 102/2/2 211/2/2
f 192/6/2 193/6/2 211/6/2
f 102/6/2 172/6/2 211/6/2
f 211/6/2 193/6/2 212/6/2
f 193/5/2 194/5/2 213/5/2
f 212/6/2 193/6/2 213/6/2
f 194/5/2 195/5/2 213/5/2
f 195/6/2 103/6/2 214/6/2
f 103/2/2 160/2/2 214/2/2
f 160/9/2 196/9/2 215/9/2
f 214/2/2 160/2/2 215/2/2
f 196/9/2 197/9/2 215/9/2
f 215/9/2 197/9/2 216/9/2
f 197/4/2 198/4/2 217/4/2
f 216/9/2 197/9/2 217/9/2
f 198/2/2 199/2/2 218/2/2
f 217/4/2 198/4/2 218/4/2
f 200/6/2 201/6/2 219/6/2
f 182/9/2 200/9/2 219/9/2
f 219/6/2 201/6/2 220/6/2
f 201/9/2 202/9/2 221/9/2
f 220/6/2 201/6/2 221/6/2
f 202/6/2 203/6/2 222/6/2
f 221/9/2 202/9/2 222/9/2
f 203/6/2 186/6/2 223/6/2
f 222/6/2 203/6/2 223/6/2
f 205/5/2 206/5/2 224/5/2
f 79/6/2 204/6/2 224/6/2
f 204/5/2 205/5/2 224/5/2
f 208/2/2 209/2/2 225/2/2
f 224/5/2 206/5/2 225/5/2
f 207/2/2 208/2/2 225/2/2
f 206/2/2 207/2/2 225/2/2
f 209/2/2 210/2/2 225/2/2
f 211/6/2 212/6/2 226/6/2
f 225/2/2 210/2/2 226/2/2
f 210/6/2 211/6/2 226/6/2
f 212/7/2 213/7/2 227/7/2
f 226/6/2 212/6/2 227/6/2
f 213/5/2 195/5/2 228/5/2
f 227/7/2 213/7/2 228/7/2
f 195/6/2 214/6/2 229/6/2
f 228/5/2 195/5/2 229/5/2
f 214/6/2 215/6/2 229/6/2
f 215/9/2 216/9/2 230/9/2
f 216/2/2 217/2/2 230/2/2
f 217/9/2 218/9/2 231/9/2
f 230/2/2 217/2/2 231/2/2
f 218/2/2 199/2/2 232/2/2
f 231/9/2 218/9/2 232/9/2
f 199/9/2 181/9/2 233/9/2
f 232/2/2 199/2/2 233/2/2
f 182/9/2 219/9/2 234/9/2
f 219/7/2 220/7/2 234/7/2
f 220/9/2 221/9/2 235/9/2
f 234/7/2 220/7/2 235/7/2
f 154/6/2 80/6/2 236/6/2
f 223/6/2 186/6/2 236/6/2
f 186/6/2 154/6/2 236/6/2
f 236/6/2 80/6/2 237/6/2
f 227/6/2 228/6/2 238/6/2
f 224/6/2 225/6/2 238/6/2
f 226/6/2 227/6/2 238/6/2
f 225/6/2 226/6/2 238/6/2
f 228/7/2 229/7/2 238/7/2
f 229/6/2 215/6/2 239/6/2
f 238/7/2 229/7/2 239/7/2
f 230/6/2 231/6/2 240/6/2
f 215/9/2 230/9/2 240/9/2
f 231/9/2 232/9/2 241/9/2
f 240/6/2 231/6/2 241/6/2
f 232/6/2 233/6/2 242/6/2
f 241/9/2 232/9/2 242/9/2
f 233/9/2 181/9/2 243/9/2
f 242/6/2 233/6/2 243/6/2
f 181/6/2 182/6/2 244/6/2
f 243/9/2 181/9/2 244/9/2
f 182/9/2 234/9/2 245/9/2
f 244/6/2 182/6/2 245/6/2
f 234/5/2 235/5/2 246/5/2
f 245/9/2 234/9/2 246/9/2
f 235/9/2 221/9/2 247/9/2
f 246/5/2 235/5/2 247/5/2
f 221/5/2 222/5/2 248/5/2
f 247/9/2 221/9/2 248/9/2
f 222/9/2 223/9/2 249/9/2
f 248/5/2 222/5/2 249/5/2
f 223/6/2 236/6/2 250/6/2
f 249/9/2 223/9/2 250/9/2
f 236/7/2 237/7/2 251/7/2
f 250/6/2 236/6/2 251/6/2
f 237/6/2 80/6/2 252/6/2
f 251/7/2 237/7/2 252/7/2
f 73/8/2 79/8/2 253/8/2
f 79/6/2 224/6/2 253/6/2
f 224/6/2 238/6/2 253/6/2
f 238/6/2 239/6/2 253/6/2
f 215/9/2 240/9/2 254/9/2
f 253/6/2 239/6/2 254/6/2
f 239/6/2 215/6/2 254/6/2
f 240/9/2 241/9/2 254/9/2
f 250/6/2 251/6/2 255/6/2
f 254/9/2 241/9/2 255/9/2
f 249/6/2 250/6/2 255/6/2
f 244/6/2 245/6/2 255/6/2
f 246/6/2 247/6/2 255/6/2
f 241/6/2 242/6/2 255/6/2
f 247/6/2 248/6/2 255/6/2
f 242/6/2 243/6/2 255/6/2
f 243/6/2 244/6/2 255/6/2
f 245/6/2 246/6/2 255/6/2
f 248/6/2 249/6/2 255/6/2
f 251/6/2 252/6/2 255/6/2
f 252/6/2 80/6/2 256/6/2
f 255/6/2 252/6/2 256/6/2
f 80/8/2 76/8/2 256/8/2
f 254/8/2 255/8/2 257/8/2
f 73/8/2 253/8/2 257/8/2
f 255/8/2 256/8/2 257/8/2
f 253/8/2 254/8/2 257/8/2
f 256/8/2 76/8/2 258/8/2
f 257/8/2 256/8/2 258/8/2
f 259/8/2 260/8/2 265/8/2
f 265/8/2 260/8/2 266/8/2
f 261/8/2 262/8/2 267/8/2
f 267/8/2 262/8/2 268/8/2
f 263/8/2 264/8/2 271/8/2
f 271/8/2 264/8/2 272/8/2
f 269/8/2 270/8/2 273/8/2
f 273/8/2 270/8/2 274/8/2
f 275/8/2 276/8/2 279/8/2
f 279/8/2 276/8/2 280/8/2
f 277/8/2 278/8/2 281/8/2
f 281/8/2 278/8/2 282/8/2
f 285/8/3 284/8/3 283/8/3
f 287/8/3 286/8/3 285/8/3
f 289/8/3 287/8/3 285/8/3
f 289/8/3 288/8/3 287/8/3
f 290/8/3 288/8/3 289/8/3
f 291/8/3 285/8/3 283/8/3
f 291/8/3 289/8/3 285/8/3
f 292/8/3 289/8/3 291/8/3
f 293/8/3 291/8/3 283/8/3
f 294/8/3 291/8/3 293/8/3
f 297/8/3 296/8/3 295/8/3
f 298/8/3 296/8/3 297/8/3
f 301/8/3 300/8/3 299/8/3
f 302/8/3 300/8/3 301/8/3
f 305/8/3 304/8/3 303/8/3
f 306/8/3 304/8/3 305/8/3
f 309/8/3 308/8/3 307/8/3
f 310/8/3 308/8/3 309/8/3
f 313/8/3 312/8/3 311/8/3
f 314/8/3 312/8/3 313/8/3
f 317/8/3 316/8/3 315/8/3
f 318/8/3 316/8/3 317/8/3
f 320/8/3 316/8/3 318/8/3
f 321/8/3 320/8/3 319/8/3
f 322/8/3 316/8/3 320/8/3
f 322/8/3 320/8/3 321/8/3
f 325/8/3 324/8/3 323/8/3
f 326/8/3 324/8/3 325/8/3
f 329/8/3 328/8/3 327/8/3
f 330/8/3 328/8/3 329/8/3
f 333/8/3 332/8/3 331/8/3
f 334/8/3 332/8/3 333/8/3
f 335/8/4 336/8/4 337/8/4
f 337/8/4 336/8/4 338/8/4
f 339/8/4 340/8/4 341/8/4
f 341/8/4 340/8/4 342/8/4
f 343/8/4 344/8/4 345/8/4
f 345/8/4 344/8/4 346/8/4
f 347/8/4 348/8/4 349/8/4
f 349/8/4 348/8/4 350/8/4
f 350/8/4 348/8/4 352/8/4
f 351/8/4 352/8/4 353/8/4
f 352/8/4 348/8/4 354/8/4
f 353/8/4 352/8/4 354/8/4
f 355/8/4 356/8/4 357/8/4
f 357/8/4 356/8/4 358/8/4
f 359/8/4 360/8/4 361/8/4
f 361/8/4 360/8/4 362/8/4
f 363/8/4 364/8/4 365/8/4
f 365/8/4 364/8/4 366/8/4
f 367/8/4 368/8/4 369/8/4
f 369/8/4 368/8/4 370/8/4
f 371/8/4 372/8/4 373/8/4
f 373/8/4 372/8/4 374/8/4
f 375/8/4 376/8/4 377/8/4
f 377/8/4 378/8/4 379/8/4
f 377/8/4 379/8/4 381/8/4
f 379/8/4 380/8/4 381/8/4
f 381/8/4 380/8/4 382/8/4
f 375/8/4 377/8/4 383/8/4
f 377/8/4 381/8/4 383/8/4
f 383/8/4 381/8/4 384/8/4
f 375/8/4 383/8/4 385/8/4
f 385/8/4 383/8/4 386/8/4
f 389/8/5 388/8/5 387/8/5
f 390/8/5 388/8/5 389/8/5
f 391/8/5 388/8/5 390/8/5
f 392/8/5 388/8/5 391/8/5
f 393/8/5 391/8/5 390/8/5
f 394/8/5 391/8/5 393/8/5
f 395/8/5 391/8/5 394/8/5
f 396/8/5 391/8/5 395/8/5
f 397/8/5 395/8/5 394/8/5
f 398/8/5 395/8/5 397/8/5
f 402/8/5 400/8/5 399/8/5
f 403/8/5 400/8/5 402/8/5
f 406/8/5 403/8/5 402/8/5
f 406/8/5 404/8/5 403/8/5
f 406/8/5 402/8/5 401/8/5
f 407/8/5 404/8/5 406/8/5
f 409/8/5 407/8/5 406/8/5
f 409/8/5 408/8/5 407/8/5
f 409/8/5 406/8/5 405/8/5
f 410/8/5 408/8/5 409/8/5
f 413/8/5 412/8/5 411/8/5
f 414/8/5 412/8/5 413/8/5
f 415/8/6 416/8/6 419/8/6
f 417/8/6 418/8/6 422/8/6
f 419/8/6 420/8/6 423/8/6
f 415/8/6 419/8/6 423/8/6
f 423/8/6 420/8/6 424/8/6
f 424/8/6 420/8/6 425/8/6
f 421/8/6 422/8/6 428/8/6
f 422/8/6 418/8/6 429/8/6
f 428/8/6 422/8/6 429/8/6
f 429/8/6 418/8/6 430/8/6
f 425/8/6 426/8/6 431/8/6
f 424/8/6 425/8/6 431/8/6
f 431/8/6 426/8/6 432/8/6
f 427/8/6 428/8/6 433/8/6
f 428/8/6 429/8/6 433/8/6
f 433/8/6 429/8/6 434/8/6
f 432/8/6 426/8/6 435/8/6
f 427/8/6 433/8/6 436/8/6
f 432/8/6 435/8/6 437/8/6
f 435/8/6 436/8/6 437/8/6
f 436/8/6 433/8/6 438/8/6
f 437/8/6 436/8/6 438/8/6
f 439/8/6 440/8/6 441/8/6
f 441/8/6 440/8/6 442/8/6
f 439/8/6 441/8/6 444/8/6
f 442/8/6 440/8/6 445/8/6
f 443/8/6 444/8/6 448/8/6
f 444/8/6 441/8/6 449/8/6
f 448/8/6 444/8/6 449/8/6
f 449/8/6 441/8/6 450/8/6
f 442/8/6 445/8/6 451/8/6
f 445/8/6 446/8/6 451/8/6
f 451/8/6 446/8/6 452/8/6
f 452/8/6 446/8/6 453/8/6
f 448/8/6 449/8/6 455/8/6
f 447/8/6 448/8/6 455/8/6
f 455/8/6 449/8/6 456/8/6
f 452/8/6 453/8/6 457/8/6
f 453/8/6 454/8/6 457/8/6
f 457/8/6 454/8/6 458/8/6
f 447/8/6 455/8/6 459/8/6
f 459/8/6 455/8/6 460/8/6
f 458/8/6 454/8/6 461/8/6
f 461/8/6 454/8/6 462/8/6
f 463/8/6 464/8/6 467/8/6
f 467/8/6 464/8/6 468/8/6
f 465/8/6 466/8/6 469/8/6
f 469/8/6 466/8/6 470/8/6
f 471/8/6 472/8/6 473/8/6
f 473/8/6 472/8/6 474/8/6
f 475/8/6 476/8/6 477/8/6
f 477/8/6 476/8/6 478/8/6
f 479/8/6 480/8/6 483/8/6
f 483/8/6 480/8/6 484/8/6
f 481/8/6 482/8/6 485/8/6
f 485/8/6 482/8/6 486/8/6
f 487/8/6 488/8/6 489/8/6
f 489/8/6 488/8/6 490/8/6
